inDegrees=yes
name=ik_MT_012005D6_009-001_orientations
DataType=double
version=3
OpenSimVersion=4.2-2021-03-12-fcedec9
endheader
time	pelvis_tilt	pelvis_list	pelvis_rotation	pelvis_tx	pelvis_ty	pelvis_tz	hip_flexion_r	hip_adduction_r	hip_rotation_r	knee_angle_r	knee_angle_r_beta	ankle_angle_r	subtalar_angle_r	mtp_angle_r	hip_flexion_l	hip_adduction_l	hip_rotation_l	knee_angle_l	knee_angle_l_beta	ankle_angle_l	subtalar_angle_l	mtp_angle_l	lumbar_extension	lumbar_bending	lumbar_rotation	arm_flex_r	arm_add_r	arm_rot_r	elbow_flex_r	pro_sup_r	wrist_flex_r	wrist_dev_r	arm_flex_l	arm_add_l	arm_rot_l	elbow_flex_l	pro_sup_l	wrist_flex_l	wrist_dev_l
13.06999999999977	6.633836819119352	3.907643711394531	351.8105532325571	0	0.9399999999999999	0	20.01968869157028	-9.978498342924468	0.275725713826446	6.826971224400531	0.1191531258046979	-8.828456712686515	0	0	-10.97231951697449	1.682953088661321	8.283770140164883	29.71540001632226	0.5186315688320001	5.307060189708888	0	0	-10.39737261323138	-3.889810937344963	-4.992153294973024	0	-10.82149160032353	0	68.75910624252509	44.74506993377902	0	0	0	-10.82149160032353	0	68.75910624252509	44.74506993377902	0	0
13.07999999999977	6.360950446413205	3.413680103484307	351.6252657340313	0	0.9399999999999999	0	20.36842839881156	-9.254503610475343	0.07102161083054162	8.139499845891249	0.1420610717763733	-9.658614086857842	0	0	-10.86337220563172	0.732949323560753	7.552779954984291	30.45432239378547	0.5315281972353975	3.873783537452537	0	0	-10.14601071758425	-3.427381957595054	-4.276703101852233	0	-10.84454407929397	0	68.81695764601825	44.75004942981546	0	0	0	-10.84454407929397	0	68.81695764601825	44.75004942981546	0	0
13.08999999999977	6.107402568381178	2.817335716029689	351.5889071347353	0	0.9399999999999999	0	20.82285040455097	-8.488427662201124	-0.3345095657720929	9.568827541922735	0.1670075461620674	-10.28112081994507	0	0	-10.62839792555511	-0.348722016881952	6.879958885864762	31.3697758732221	0.547505874600405	2.228590290286736	0	0	-9.912301866586803	-2.823658291752643	-3.750872837617931	0	-10.87039176416789	0	68.88117430859484	44.75545063066783	0	0	0	-10.87039176416789	0	68.88117430859484	44.75545063066783	0	0
13.09999999999977	5.898580546367093	2.157064442404124	351.7022322458671	0	0.9399999999999999	0	21.16008548434528	-7.52541171826685	-0.84750354552084	10.80927001140884	0.1886573514361693	-10.04579316047932	0	0	-10.30725366245088	-1.515049870885209	6.278790165405717	32.50280878011032	0.5672810293590467	0.4049799652984366	0	0	-9.692928423593019	-2.102573764727328	-3.40859325877748	0	-10.87465891395214	0	68.89358529925339	44.75680768808101	0	0	0	-10.87465891395214	0	68.89358529925339	44.75680768808101	0	0
13.10999999999976	5.71735175886035	1.606177001914938	351.9192417964026	0	0.9399999999999999	0	21.13761011600415	-6.814134969104712	-1.183217852442054	11.69081673935973	0.204043244349095	-9.736587339605515	0	0	-9.839225313416415	-2.639871544065352	5.772650460864654	33.79330040403035	0.5898043571658595	-1.660612203301904	0	0	-9.479270599600669	-1.454505519465411	-3.192624610568935	0	-10.87818938087142	0	68.9038375302091	44.75792364653454	0	0	0	-10.87818938087142	0	68.9038375302091	44.75792364653454	0	0
13.11999999999976	5.45830481400206	1.03852084881022	352.2234637204505	0	0.9399999999999999	0	20.91456466695607	-6.212542995542985	-1.418626031549469	12.61053399016215	0.2200953385629877	-8.883071112612187	0	0	-9.16878750767059	-3.837643024915249	5.225325444859638	35.26497195899174	0.6154898713078806	-3.732930509101092	0	0	-9.162728812286186	-0.6976955130577507	-3.018885346611677	0	-10.88220334175877	0	68.91548701269083	44.75918866766621	0	0	0	-10.88220334175877	0	68.91548701269083	44.75918866766621	0	0
13.12999999999976	5.205070360027656	0.6759868378532055	352.6501851866313	0	0.9399999999999999	0	20.52589592872624	-5.768925430709721	-1.740519886903636	13.47541305034923	0.2351903257948065	-7.751877983650453	0	0	-8.313432133450286	-4.838590820273221	4.70334765796362	36.85948819712095	0.6433194296397493	-6.051658637967354	0	0	-8.855917691422642	-0.1511654685850939	-2.984148609370343	0	-10.88657162417535	0	68.92815457275671	44.76056012591942	0	0	0	-10.88657162417535	0	68.92815457275671	44.76056012591942	0	0
